<svg width="159" height="50" viewBox="0 0 159 50" fill="none" xmlns="http://www.w3.org/2000/svg">
<g clip-path="url(#clip0_1386_340)">
<path d="M45.5801 35.4362C45.3306 34.8268 45.0968 34.1862 44.8474 33.6393L43.6939 31.0299L43.6471 30.9831C40.2177 23.4831 36.5545 15.8581 32.673 8.35807L32.5171 8.04557C32.1274 7.31119 31.7377 6.49869 31.3324 5.74869C30.8336 4.85807 30.3503 3.90494 29.5553 2.99869C28.7804 2.05046 27.8051 1.28649 26.6999 0.761903C25.5947 0.23732 24.3871 -0.03479 23.1642 -0.03479C21.9413 -0.03479 20.7337 0.23732 19.6284 0.761903C18.5232 1.28649 17.5479 2.05046 16.773 2.99869C16.0403 3.90494 15.4948 4.85807 14.9959 5.74869C14.6062 6.56119 14.2165 7.35807 13.8112 8.09244L13.6554 8.40494C9.83623 15.9049 6.11065 23.5299 2.68123 31.0299L2.5877 31.1237C2.24476 31.9362 1.83947 32.7799 1.44976 33.6862C1.20035 34.2331 0.95094 34.8268 0.701529 35.4831C0.0281678 37.2015 -0.186858 39.0661 0.0776443 40.8932C0.342146 42.7203 1.07705 44.4468 2.20992 45.9025C3.34279 47.3582 4.83452 48.4928 6.53811 49.1947C8.2417 49.8966 10.0983 50.1413 11.9251 49.9049C13.6763 49.6739 15.3627 49.0892 16.8821 48.1862C18.9086 47.0456 20.8571 45.3893 23.0395 42.9987C25.2218 45.3893 27.2171 47.0456 29.1968 48.2018C31.1006 49.3219 33.2565 49.9401 35.4633 49.9987C38.0187 50.0093 40.4918 49.0929 42.4257 47.4186C44.3597 45.7442 45.6241 43.4251 45.9853 40.8893C46.4029 39.0671 46.2616 37.161 45.5801 35.4206V35.4362ZM23.1954 38.0299C20.5142 34.5924 18.7683 31.4362 18.1759 28.7331C17.9305 27.7314 17.8776 26.6921 18.0201 25.6706C18.1292 24.8737 18.4254 24.1706 18.8306 23.5768C19.7659 22.2174 21.4027 21.3737 23.1954 21.3737C24.0467 21.3476 24.8911 21.5338 25.653 21.9156C26.4148 22.2975 27.0701 22.8629 27.5601 23.5612C27.9654 24.1862 28.2615 24.8737 28.3551 25.6706C28.5109 26.5768 28.4486 27.6237 28.1992 28.7331C27.6068 31.3893 25.8609 34.5768 23.1954 38.0299ZM43.0548 40.3424C42.8777 41.6299 42.3671 42.8483 41.5739 43.8763C40.7808 44.9044 39.7327 45.7062 38.5342 46.2018C37.3495 46.7018 36.0401 46.8424 34.7618 46.7018C33.5148 46.5456 32.2677 46.1393 30.9895 45.3893C28.8671 44.0745 26.9587 42.4409 25.3309 40.5456C28.6045 36.4831 30.5842 32.7799 31.3324 29.4831C31.6909 27.9206 31.7377 26.5143 31.5818 25.2174C31.3872 23.9882 30.9299 22.8156 30.2412 21.7799C29.455 20.6569 28.4055 19.7447 27.185 19.1235C25.9646 18.5023 24.6106 18.1912 23.2421 18.2174C20.3583 18.2174 17.7862 19.5612 16.2274 21.7643C15.5257 22.7974 15.0722 23.9793 14.9024 25.2174C14.6998 26.5299 14.7465 27.9831 15.1518 29.4831C15.9001 32.7799 17.9265 36.5299 21.1533 40.5768C19.5531 42.5083 17.6403 44.1563 15.4948 45.4518C14.2009 46.2018 12.9695 46.5924 11.7224 46.7487C9.78305 46.9977 7.82402 46.4694 6.27114 45.2786C4.71826 44.0877 3.69705 42.3307 3.42947 40.3893C3.27359 39.1393 3.3827 37.8893 3.88153 36.4831C4.03741 35.9831 4.27123 35.4831 4.52065 34.8893C4.86359 34.0768 5.26888 33.2331 5.65859 32.3893L5.72094 32.2799C9.088 24.8268 12.7668 17.2174 16.5859 9.76432L16.7418 9.45182C17.1315 8.70182 17.5212 7.90494 17.9265 7.15494C18.3318 6.35807 18.7683 5.59244 19.3295 4.96744C19.8152 4.38623 20.4222 3.91881 21.1076 3.59809C21.793 3.27738 22.5402 3.11117 23.2967 3.11117C24.0531 3.11117 24.8003 3.27738 25.4858 3.59809C26.1712 3.91881 26.7781 4.38623 27.2639 4.96744C27.8095 5.59244 28.2615 6.35807 28.6668 7.15494C29.0565 7.90494 29.4462 8.71744 29.8515 9.45182L30.0074 9.76432C33.8109 17.2174 37.4898 24.8268 40.9192 32.2799L40.9659 32.3268C41.3712 33.1393 41.7142 34.0456 42.1039 34.8268C42.3533 35.4362 42.6027 35.9206 42.7586 36.4362C43.0548 37.8424 43.2106 39.0924 43.0548 40.3424ZM64.7536 37.6862C63.5789 37.7034 62.4155 37.4553 61.3496 36.9603C60.2837 36.4653 59.3426 35.7361 58.5962 34.8268C56.919 32.8893 56.0289 30.391 56.1021 27.8268C56.0765 25.2068 56.9953 22.6656 58.6898 20.6706C59.4735 19.7497 60.4492 19.0122 61.548 18.5101C62.6469 18.0079 63.8422 17.7534 65.0498 17.7643C66.186 17.7331 67.3116 17.9921 68.3205 18.5169C69.3294 19.0417 70.1887 19.8151 70.8174 20.7643L70.9733 18.3112H75.525V37.1862H70.9577L70.8018 34.4362C70.1536 35.4497 69.2577 36.2803 68.1991 36.8492C67.1405 37.418 65.9545 37.7061 64.7536 37.6862ZM65.9383 33.1862C66.8424 33.1862 67.6374 32.9362 68.3856 32.4831C69.0715 31.9831 69.6327 31.3268 70.0692 30.5299C70.4589 29.7331 70.6615 28.7799 70.6615 27.7174C70.7223 26.7946 70.5431 25.8718 70.1414 25.0392C69.7398 24.2066 69.1294 23.4927 68.37 22.9674C67.6404 22.5118 66.798 22.2702 65.9383 22.2702C65.0786 22.2702 64.2362 22.5118 63.5065 22.9674C62.8206 23.4674 62.2595 24.1237 61.823 24.9206C61.4108 25.7994 61.208 26.7622 61.2306 27.7331C61.1699 28.6559 61.3491 29.5787 61.7507 30.4113C62.1524 31.2439 62.7627 31.9578 63.5221 32.4831C64.2548 32.9362 65.0498 33.1862 65.9383 33.1862ZM83.3192 13.2174C83.3192 13.7643 83.2256 14.2643 82.9762 14.6706C82.7268 15.0612 82.3839 15.4206 81.9318 15.6706C81.4798 15.9206 80.9965 16.0143 80.4977 16.0143C79.9989 16.0143 79.5 15.9206 79.048 15.6706C78.6205 15.432 78.2609 15.0877 78.0036 14.6706C77.7622 14.2255 77.6438 13.7238 77.6606 13.2174C77.6606 12.6549 77.7698 12.1549 78.0036 11.7643C78.253 11.2956 78.6115 11.0143 79.048 10.7643C79.5 10.5143 79.9833 10.4049 80.4977 10.4049C80.9939 10.3935 81.4846 10.5113 81.9217 10.7468C82.3589 10.9823 82.7276 11.3276 82.9918 11.7487C83.2187 12.2042 83.331 12.7084 83.3192 13.2174ZM78.0192 37.1237V18.2799H82.9762V37.1549H78.0036L78.0192 37.1237ZM96.2262 23.2174V23.2799C95.9924 23.1706 95.6806 23.1237 95.4468 23.0768C95.135 23.0143 94.8856 23.0143 94.5895 23.0143C93.2021 23.0143 92.1577 23.4206 91.4718 24.2643C90.7236 25.1237 90.3806 26.3268 90.3806 27.8737V37.1393H85.408V18.2643H89.9753L90.1312 21.1237C90.63 20.1237 91.2224 19.3737 92.0642 18.8112C92.9015 18.2647 93.8872 17.9917 94.8856 18.0299C95.2442 18.0299 95.5871 18.0612 95.8833 18.1237C96.0392 18.1706 96.1327 18.1706 96.2262 18.2174V23.2174ZM98.2215 37.1237V10.5299H103.179V20.6862C103.88 19.7799 104.675 19.0768 105.673 18.5299C107.252 17.7537 109.046 17.5336 110.766 17.9049C112.485 18.2763 114.03 19.2176 115.15 20.5768C116.831 22.5184 117.722 25.0229 117.644 27.5924C117.67 30.2124 116.751 32.7536 115.057 34.7487C114.273 35.6696 113.297 36.4071 112.199 36.9092C111.1 37.4113 109.904 37.6659 108.697 37.6549C107.561 37.6861 106.435 37.4271 105.426 36.9023C104.417 36.3775 103.558 35.6042 102.929 34.6549L102.773 37.1081L98.2215 37.1549V37.1237ZM107.808 33.1862C108.697 33.1862 109.492 32.9362 110.24 32.4831C110.926 31.9831 111.487 31.3268 111.924 30.5299C112.329 29.7331 112.516 28.7799 112.516 27.7174C112.516 26.6706 112.329 25.7174 111.924 24.9206C111.514 24.1522 110.939 23.485 110.24 22.9674C109.51 22.5118 108.668 22.2702 107.808 22.2702C106.949 22.2702 106.106 22.5118 105.377 22.9674C104.675 23.4674 104.129 24.1237 103.677 24.9206C103.265 25.7994 103.062 26.7622 103.085 27.7331C103.024 28.6559 103.203 29.5787 103.605 30.4113C104.007 31.2439 104.617 31.9578 105.377 32.4831C106.109 32.9362 106.904 33.1862 107.808 33.1862ZM119.515 37.1393V18.2643H124.082L124.238 20.7174C124.812 19.7771 125.626 19.0075 126.597 18.4884C127.567 17.9692 128.658 17.7192 129.757 17.7643C131.013 17.7426 132.248 18.0926 133.307 18.7707C134.366 19.4488 135.203 20.4249 135.711 21.5768C136.257 22.7643 136.553 24.2331 136.553 25.8737V37.1862H131.58V26.5299C131.58 25.2174 131.284 24.1862 130.692 23.4206C130.099 22.6706 129.289 22.2643 128.26 22.2643C127.512 22.2643 126.857 22.4206 126.28 22.7643C125.735 23.1237 125.283 23.5768 124.94 24.2174C124.593 24.865 124.421 25.5921 124.441 26.3268V37.1393H119.515ZM139.032 37.1393V10.5143H144.004V20.6706C144.678 19.7593 145.554 19.0179 146.563 18.5053C147.572 17.9926 148.687 17.7229 149.819 17.7174C150.993 17.7002 152.157 17.9483 153.223 18.4433C154.288 18.9383 155.23 19.6675 155.976 20.5768C157.645 22.5183 158.529 25.0152 158.454 27.5768C158.482 30.197 157.562 32.7387 155.867 34.7331C155.083 35.654 154.107 36.3915 153.009 36.8936C151.91 37.3957 150.714 37.6503 149.507 37.6393C148.371 37.6705 147.245 37.4115 146.236 36.8867C145.227 36.3619 144.368 35.5885 143.739 34.6393L143.599 37.0924L139.032 37.1393ZM148.665 33.1862C149.569 33.1862 150.364 32.9362 151.097 32.4831C151.798 31.9831 152.344 31.3268 152.796 30.5299C153.186 29.7331 153.388 28.7799 153.388 27.7174C153.449 26.7946 153.27 25.8718 152.868 25.0392C152.467 24.2066 151.856 23.4927 151.097 22.9674C150.367 22.5118 149.525 22.2702 148.665 22.2702C147.805 22.2702 146.963 22.5118 146.233 22.9674C145.547 23.4674 144.986 24.1237 144.55 24.9206C144.115 25.7915 143.911 26.7601 143.957 27.7331C143.897 28.6559 144.076 29.5787 144.477 30.4113C144.879 31.2439 145.49 31.9578 146.249 32.4831C146.982 32.9362 147.73 33.1862 148.665 33.1862Z" fill="#FF385C"/>
</g>
<defs>
<clipPath id="clip0_1386_340">
<rect width="159" height="50" fill="white"/>
</clipPath>
</defs>
</svg>
