<svg width="354" height="316" viewBox="0 0 354 316" fill="none" xmlns="http://www.w3.org/2000/svg">
<path fill-rule="evenodd" clip-rule="evenodd" d="M282.332 219.056C282.391 219.018 282.759 219.546 283.304 220.586C283.85 221.622 284.53 223.196 285.163 225.226C286.458 229.274 287.271 235.248 286.789 241.764C286.311 248.279 284.925 253.998 283.855 258.069C282.761 262.141 281.956 264.613 281.817 264.572C281.664 264.526 282.207 261.968 283.105 257.856C283.98 253.744 285.228 248.055 285.696 241.674C286.166 235.294 285.497 229.488 284.422 225.473C283.378 221.439 282.16 219.153 282.332 219.056Z" fill="white"/>
<path fill-rule="evenodd" clip-rule="evenodd" d="M286.028 186.449C286.096 186.416 286.542 187.302 287.285 188.934C288.027 190.567 289.07 192.946 290.304 195.915C292.752 201.852 296.047 210.164 298.436 219.813C299.611 224.64 300.412 229.332 300.817 233.641C301.226 237.95 301.267 241.864 301.063 245.131C300.865 248.4 300.485 251.023 300.12 252.806C299.758 254.593 299.472 255.556 299.407 255.54C299.204 255.498 300.099 251.564 300.289 245.092C300.525 238.634 299.745 229.661 297.376 220.12C295.014 210.576 291.854 202.26 289.592 196.249C288.453 193.241 287.532 190.806 286.894 189.123C286.272 187.433 285.958 186.483 286.028 186.449Z" fill="white"/>
<path fill-rule="evenodd" clip-rule="evenodd" d="M149.268 224.719C149.395 224.868 148.151 226.156 146.537 228.548C146.137 229.149 145.702 229.806 145.295 230.557C144.849 231.28 144.462 232.11 144.031 232.967C143.23 234.713 142.469 236.697 141.883 238.858C141.322 241.027 140.994 243.146 140.818 245.089C140.764 246.062 140.686 246.989 140.709 247.858C140.686 248.729 140.733 249.538 140.777 250.279C140.973 253.236 141.396 255.046 141.215 255.099C141.106 255.139 140.41 253.391 140.006 250.365C139.91 249.608 139.817 248.778 139.8 247.879C139.737 246.98 139.782 246.02 139.81 245.008C139.936 242.991 140.246 240.779 140.829 238.529C141.437 236.285 142.257 234.233 143.139 232.452C143.61 231.578 144.042 230.739 144.535 230.015C144.989 229.263 145.475 228.613 145.927 228.029C147.751 225.699 149.196 224.622 149.268 224.719Z" fill="white"/>
<path fill-rule="evenodd" clip-rule="evenodd" d="M152.187 235.158C152.279 235.318 151.586 235.894 150.681 236.995C150.223 237.538 149.74 238.243 149.265 239.06C148.81 239.891 148.374 240.844 148.032 241.894C147.705 242.951 147.508 243.993 147.395 244.952C147.305 245.913 147.285 246.791 147.338 247.527C147.425 248.999 147.645 249.917 147.481 249.981C147.364 250.035 146.871 249.195 146.569 247.639C146.412 246.863 146.347 245.912 146.388 244.86C146.452 243.811 146.637 242.66 146.995 241.506C147.368 240.357 147.876 239.328 148.421 238.458C148.985 237.602 149.576 236.898 150.139 236.392C151.26 235.367 152.125 235.036 152.187 235.158Z" fill="white"/>
<path fill-rule="evenodd" clip-rule="evenodd" d="M111.67 137.873C111.727 137.819 112.218 138.344 113.06 139.345C113.488 139.84 113.993 140.463 114.528 141.232C115.068 141.994 115.718 142.84 116.328 143.857C116.642 144.359 116.972 144.885 117.316 145.433C117.656 145.984 117.964 146.588 118.307 147.197C119.009 148.408 119.639 149.774 120.324 151.2C121.617 154.091 122.853 157.373 123.838 160.93C124.791 164.498 125.396 167.984 125.758 171.173C125.896 172.775 126.051 174.294 126.067 175.724C126.083 176.438 126.126 177.127 126.117 177.791C126.103 178.453 126.089 179.089 126.076 179.696C126.073 180.911 125.951 182.004 125.879 182.963C125.814 183.924 125.703 184.745 125.591 185.413C125.385 186.751 125.236 187.481 125.161 187.469C124.967 187.442 125.331 184.477 125.301 179.687C125.291 179.088 125.281 178.462 125.271 177.808C125.258 177.155 125.194 176.477 125.158 175.776C125.104 174.37 124.917 172.88 124.755 171.31C124.344 168.182 123.722 164.77 122.786 161.268C121.819 157.777 120.635 154.545 119.415 151.676C118.766 150.263 118.176 148.902 117.519 147.69C117.198 147.079 116.912 146.473 116.596 145.918C116.278 145.363 115.973 144.831 115.682 144.323C113.311 140.284 111.521 138.011 111.67 137.873Z" fill="white"/>
<path fill-rule="evenodd" clip-rule="evenodd" d="M124.088 143.454C124.181 143.364 125.441 144.644 127.043 147.111C127.849 148.338 128.698 149.886 129.525 151.67C130.328 153.467 131.094 155.507 131.706 157.718C132.299 159.935 132.675 162.101 132.9 164.083C133.098 166.069 133.16 167.869 133.097 169.376C132.986 172.392 132.568 174.21 132.446 174.189C132.269 174.166 132.41 172.325 132.321 169.375C132.285 167.901 132.145 166.151 131.899 164.226C131.625 162.305 131.229 160.21 130.654 158.056C130.06 155.908 129.344 153.916 128.613 152.142C127.857 150.379 127.099 148.828 126.392 147.568C124.991 145.04 123.952 143.578 124.088 143.454Z" fill="white"/>
<path fill-rule="evenodd" clip-rule="evenodd" d="M80.6055 240.933L79.6509 238.816L53.0757 260.873L64.6696 281.276L91.1235 257.047L80.6055 240.933Z" fill="#22343D"/>
<path fill-rule="evenodd" clip-rule="evenodd" d="M54.1895 261.345L64.3746 280.479L65.0259 280.163L55.9558 262.273L54.1895 261.345Z" fill="#D7D4D4"/>
<path fill-rule="evenodd" clip-rule="evenodd" d="M80.0806 240.514L54.1895 261.344C54.1895 261.344 54.298 261.792 54.9405 262.068C55.5838 262.343 55.9558 262.273 55.9558 262.273L83.1759 242.036C83.1759 242.036 81.6067 241.639 81.0376 241.178C80.4677 240.715 80.0806 240.514 80.0806 240.514Z" fill="#F5F3F3"/>
<path fill-rule="evenodd" clip-rule="evenodd" d="M83.8411 241.219L55.4692 261.805L64.6839 280.776L66.1684 283.403L94.5411 260.592C94.5411 260.592 91.5528 255.747 89.7585 252.822C87.9643 249.896 84.4421 242.997 84.2505 242.555C84.0582 242.113 83.8411 241.219 83.8411 241.219Z" fill="#FAB005"/>
<path fill-rule="evenodd" clip-rule="evenodd" d="M317.816 99.0964L318.617 97.3181L340.933 115.841L331.197 132.974L308.983 112.627L317.816 99.0964Z" fill="#22343D"/>
<path fill-rule="evenodd" clip-rule="evenodd" d="M339.998 116.237L331.446 132.304L330.898 132.039L338.515 117.016L339.998 116.237Z" fill="#D7D4D4"/>
<path fill-rule="evenodd" clip-rule="evenodd" d="M318.257 98.744L339.998 116.237C339.998 116.237 339.907 116.612 339.368 116.843C338.828 117.075 338.515 117.016 338.515 117.016L315.657 100.022C315.657 100.022 316.975 99.69 317.453 99.3015C317.931 98.9131 318.257 98.744 318.257 98.744Z" fill="#F5F3F3"/>
<path fill-rule="evenodd" clip-rule="evenodd" d="M315.099 99.3372L338.924 116.623L331.186 132.554L329.94 134.76L306.113 115.605C306.113 115.605 308.623 111.536 310.13 109.079C311.637 106.623 314.594 100.829 314.755 100.458C314.916 100.088 315.099 99.3372 315.099 99.3372Z" fill="#4DADF7"/>
<path fill-rule="evenodd" clip-rule="evenodd" d="M48.8779 65.7585C48.8779 65.7585 47.193 67.0253 48.035 69.1374C48.8779 71.2495 52.5717 77.5147 57.5617 77.3032C57.766 77.2953 51.2755 65.7585 51.2755 65.7585H48.8779Z" fill="#22343D"/>
<path fill-rule="evenodd" clip-rule="evenodd" d="M41.2446 181.26C41.2446 181.26 35.0046 175.204 33.0069 176.289C30.5661 177.615 16.5961 192.484 17.142 199.488C17.3663 202.357 20.4408 199.899 25.9193 193.726C31.3994 187.554 38.2994 190.199 38.2994 190.199L41.2446 181.26Z" fill="#22343D"/>
<path fill-rule="evenodd" clip-rule="evenodd" d="M56.4051 191.472L48.8722 186.563C48.8722 186.563 29.3462 206.448 32.3968 209.1C34.7106 211.11 36.0707 209.307 41.55 203.134C47.0285 196.962 53.97 200.511 53.97 200.511L56.4051 191.472Z" fill="#22343D"/>
<path fill-rule="evenodd" clip-rule="evenodd" d="M102.421 126.05L103.833 147.84L72.4756 138.966L102.421 126.05Z" fill="#F3A683"/>
<path fill-rule="evenodd" clip-rule="evenodd" d="M72.4755 139.716C72.4755 139.716 99.9047 141.594 103.557 140.27C103.557 140.27 108.917 197.474 99.3795 203.646C89.8408 209.819 68.436 200.78 68.436 200.78L74.2154 188.435L86.6762 187.554V165.509L85.7822 165.729L72.4755 139.716Z" fill="#112129"/>
<path fill-rule="evenodd" clip-rule="evenodd" d="M38.0924 178.736C38.0924 178.736 31.1932 181.822 33.4256 189.318C33.4256 189.318 56.9766 209.379 68.4365 204.749C74.8568 202.155 81.7536 182.368 86.5784 165.462L103.557 140.27C103.557 140.27 95.5496 140.705 92.8782 140.694C87.7724 140.673 72.4759 139.716 72.4759 139.716C72.4759 139.716 64.4856 185.129 61.6386 186.231C58.7916 187.332 38.0924 178.736 38.0924 178.736Z" fill="#22343D"/>
<path fill-rule="evenodd" clip-rule="evenodd" d="M78.8677 82.7569C78.8677 82.7569 95.3064 66.0023 98.147 61.5925C100.988 57.1836 107.077 42.4136 114.584 36.2412L110.932 27.8639C110.932 27.8639 113.165 26.5416 114.584 30.0679C114.584 30.0679 119.86 18.6056 121.078 18.825C122.297 19.0452 118.643 27.6436 118.643 27.6436C118.643 27.6436 123.718 19.7068 125.138 19.9279C126.557 20.1481 121.485 28.8497 121.485 28.8497C121.485 28.8497 127.166 21.6914 127.979 22.5732C128.79 23.455 123.514 28.8497 123.514 28.8497C123.514 28.8497 129.196 25.3061 129.805 26.474C130.414 27.6436 124.123 30.7294 124.123 30.7294C124.123 30.7294 123.514 35.7999 119.659 38.0039C119.659 38.0039 112.024 60.4099 105.124 67.6843L82.959 92.7088L78.8677 82.7569Z" fill="#FFC6B2"/>
<path fill-rule="evenodd" clip-rule="evenodd" d="M59.2445 91.4406C59.2445 91.4406 43.6686 109.14 39.5836 112.184C35.4979 115.228 21.8456 121.705 16.0941 129.804L8.41668 125.757C8.41668 125.757 7.17875 128.169 10.4121 129.745C10.4121 129.745 -0.189768 135.369 0.00258618 136.695C0.193344 138.02 8.14212 134.132 8.14212 134.132C8.14212 134.132 0.788764 139.57 0.978723 141.114C1.16868 142.658 9.22521 137.229 9.22521 137.229C9.22521 137.229 2.583 143.334 3.38754 144.223C4.19048 145.114 9.20685 139.434 9.20685 139.434C9.20685 139.434 5.89134 145.572 6.96245 146.244C8.03197 146.916 10.9317 140.112 10.9317 140.112C10.9317 140.112 15.604 139.5 17.6704 135.331C17.6704 135.331 37.2067 126.887 43.9687 119.46L68.2803 100.746L59.2445 91.4406Z" fill="#FFC6B2"/>
<path fill-rule="evenodd" clip-rule="evenodd" d="M65.0838 84.3862L57.2061 92.7635L59.2038 102.207C59.2038 102.207 66.965 122.448 68.1383 127.386C69.9621 135.065 67.0121 146.772 67.0121 146.772C67.0121 146.772 80.1696 145.585 92.1419 145.145C104.113 144.703 108.03 140.514 108.03 140.514C108.03 140.514 97.6499 102.959 90.4833 92.4609C83.3159 81.9645 80.7092 78.6785 80.7092 78.6785L70.1568 81.1842L65.0838 84.3862Z" fill="#FAB005"/>
<path fill-rule="evenodd" clip-rule="evenodd" d="M88.2033 91.2231L96.4114 85.5257C96.4114 85.5257 97.6653 79.4218 87.7667 72.2219L76.1592 80.1232L88.2033 91.2231Z" fill="#22343D"/>
<path fill-rule="evenodd" clip-rule="evenodd" d="M58.866 92.1011C54.366 92.7869 46.1427 105.176 45.2256 105.153C45.2256 105.153 51.013 115.412 55.5975 115.745C55.5975 115.745 75.7724 89.5251 58.866 92.1011Z" fill="#22343D"/>
<path fill-rule="evenodd" clip-rule="evenodd" d="M74.7506 84.0396C74.7506 84.0396 68.2098 78.7307 68.4364 76.6143C68.4939 76.0811 69.4006 75.2158 69.6361 74.4476C70.9043 70.3144 64.7897 59.6646 61.0328 57.4198C58.0773 55.6545 59.3727 55.4985 53.1527 59.5137C46.9327 63.529 50.4765 70.4722 53.254 74.0635C55.88 77.4579 58.8874 78.912 61.5931 79.1573L65.4402 88.4398L74.7506 84.0396Z" fill="#FFC6B2"/>
<path fill-rule="evenodd" clip-rule="evenodd" d="M62.9487 91.4092C61.7116 88.1127 64.0542 83.9604 68.1814 82.1319C72.3102 80.3024 76.6578 81.492 77.8973 84.7867C79.1336 88.0823 74.9801 93.0366 72.6614 94.064C70.3428 95.0915 64.1851 94.7039 62.9487 91.4092Z" fill="#FFC6B2"/>
<path fill-rule="evenodd" clip-rule="evenodd" d="M53.2549 74.0637C53.2549 74.0637 51.1334 73.9363 50.8979 75.4718C50.6617 77.0082 54.7865 77.0082 56.319 75.8559L53.2549 74.0637Z" fill="#FFC6B2"/>
<path fill-rule="evenodd" clip-rule="evenodd" d="M54.3154 75.4719C53.9123 72.6965 51.1898 70.633 51.3255 67.9287C52.6305 67.94 53.4685 66.1842 52.8747 64.6834C52.6408 64.0938 52.245 63.5892 51.9919 63.0074C51.7397 62.4265 51.6727 61.6652 52.0598 61.3366C52.2434 61.1814 52.4916 61.1545 52.7294 61.1285C54.6641 60.9126 57.9789 61.543 59.7595 60.8259C61.4548 60.1436 63.2714 58.8161 63.095 56.5601C62.941 54.5954 61.3439 53.0026 59.8769 51.7992C59.0364 51.109 56.6348 49.3047 55.7289 49.4686C54.3457 49.7183 54.0105 51.7229 53.9107 53.4006C52.9433 52.4001 51.5162 52.5605 50.675 53.3746C49.8337 54.1887 49.4355 55.4824 49.0691 56.7309C48.702 57.9803 48.3133 59.2774 47.4832 60.1071C46.7098 60.8805 45.4862 61.4658 45.6467 62.7811C45.8374 64.3487 47.7226 64.9062 48.5942 66.2432C48.3795 65.9154 48.1975 68.0085 48.3213 68.3631C48.6932 69.4321 49.6214 70.1396 50.2927 70.9573C51.7222 72.7 52.4213 74.4549 54.3154 75.4719Z" fill="#22343D"/>
<path fill-rule="evenodd" clip-rule="evenodd" d="M66.1671 69.1259L61.3335 71.8414C61.3335 71.8414 67.1392 76.4194 66.1671 69.1259Z" fill="white"/>
<path fill-rule="evenodd" clip-rule="evenodd" d="M59.5167 70.2023C59.7809 70.7468 59.3898 71.534 58.6435 71.9606C57.8972 72.3872 57.0783 72.2918 56.8141 71.7473C56.5508 71.2028 56.9411 70.4164 57.6873 69.989C58.4344 69.5624 59.2525 69.6578 59.5167 70.2023Z" fill="#FFB2A0"/>
<path fill-rule="evenodd" clip-rule="evenodd" d="M66.5743 64.9651C66.8385 65.5096 66.4474 66.2968 65.7011 66.7234C64.9549 67.15 64.136 67.0546 63.8718 66.5101C63.6084 65.9656 63.9987 65.1784 64.7449 64.7518C65.492 64.3252 66.3101 64.4206 66.5743 64.9651Z" fill="#FFB2A0"/>
<path fill-rule="evenodd" clip-rule="evenodd" d="M62.7925 68.9332C62.7702 68.9029 62.8604 68.7737 63.0695 68.6098C63.269 68.4425 63.6162 68.2622 63.874 67.9604C64.1294 67.6682 64.2212 67.0587 63.8301 66.9729C63.4239 66.8229 62.9625 67.3292 62.4334 67.8104C62.3025 67.9283 62.1732 68.0454 62.0447 68.1607C61.925 68.2804 61.6727 68.4555 61.4109 68.42C60.9121 68.3324 60.6998 67.9708 60.5082 67.7289C60.1251 67.1948 59.8889 66.6356 59.758 66.1518C59.4986 65.1738 59.6151 64.5426 59.6774 64.5478C59.7644 64.5434 59.7931 65.1504 60.1227 66.0105C60.2887 66.4379 60.537 66.9234 60.8985 67.3821C61.0749 67.6145 61.2968 67.8312 61.4548 67.8382C61.5211 67.8416 61.573 67.8174 61.6975 67.7038C61.8244 67.5885 61.9521 67.4714 62.0814 67.3535C62.348 67.1194 62.5786 66.8827 62.8835 66.6625C63.1796 66.4457 63.6019 66.3087 63.9802 66.4483C64.384 66.5636 64.6211 67.0752 64.5509 67.4307C64.5054 67.7931 64.3394 68.0601 64.151 68.2552C63.7527 68.6168 63.3967 68.7043 63.1725 68.8136C62.9426 68.9081 62.8165 68.9671 62.7925 68.9332Z" fill="#22343D"/>
<path fill-rule="evenodd" clip-rule="evenodd" d="M61.5938 79.1576C61.5938 79.1576 64.677 79.1767 66.3499 78.0574C66.3499 78.0574 64.9348 79.9458 62.103 80.4348L61.5938 79.1576Z" fill="#FFA192"/>
<path fill-rule="evenodd" clip-rule="evenodd" d="M62.93 64.1371C62.902 64.3027 62.471 64.3539 62.0153 64.5724C61.5532 64.7753 61.2195 65.0761 61.091 64.9825C60.9593 64.907 61.1772 64.3088 61.8014 64.0235C62.4247 63.7365 62.9707 63.9811 62.93 64.1371Z" fill="#22343D"/>
<path fill-rule="evenodd" clip-rule="evenodd" d="M56.8878 68.4429C56.7713 68.3492 56.9541 67.8099 57.3978 67.2698C57.8472 66.7183 58.4211 66.5345 58.4817 66.6888C58.5456 66.8388 58.196 67.1883 57.8025 67.6729C57.4026 68.1559 57.0139 68.5452 56.8878 68.4429Z" fill="#22343D"/>
<path fill-rule="evenodd" clip-rule="evenodd" d="M54.5464 67.6106C54.2966 67.4095 54.1018 66.5485 55.058 65.3884C56.023 64.2023 57.1013 64.4112 57.2306 64.7407C57.3694 65.0641 57.0103 65.5245 56.1634 66.5676C55.3038 67.6071 54.817 67.8308 54.5464 67.6106Z" fill="#22343D"/>
<path fill-rule="evenodd" clip-rule="evenodd" d="M59.6218 63.0409C59.4838 62.76 59.6362 61.9424 60.8797 61.3727C62.1408 60.784 62.9812 61.4334 62.9693 61.7707C62.9669 62.1063 62.492 62.3412 61.3841 62.8597C60.2683 63.3687 59.7711 63.347 59.6218 63.0409Z" fill="#22343D"/>
<path fill-rule="evenodd" clip-rule="evenodd" d="M324.856 71.174C324.937 71.2616 323.598 72.8986 320.819 74.6812C318.074 76.4621 313.755 78.2274 308.788 78.2673C303.82 78.3071 299.477 76.6112 296.709 74.8745C293.906 73.137 292.545 71.5208 292.624 71.4315C292.74 71.2729 294.263 72.6358 297.069 74.128C299.848 75.6263 304.037 77.1132 308.779 77.0759C313.522 77.0369 317.69 75.4832 320.449 73.9407C323.233 72.4035 324.739 71.0162 324.856 71.174Z" fill="#22343D"/>
<path fill-rule="evenodd" clip-rule="evenodd" d="M294.55 68.7012C294.475 68.8824 292.992 68.2139 290.493 67.6087C289.248 67.2896 287.737 67.0434 286.055 66.8162C284.366 66.6133 282.499 66.4521 280.528 66.2995C278.555 66.1495 276.668 65.9769 274.953 65.7463C273.239 65.4992 271.699 65.2053 270.43 64.8324C267.882 64.1102 266.439 63.2553 266.489 63.1348C266.555 62.9527 268.073 63.5154 270.596 64.0087C271.854 64.2697 273.373 64.4717 275.064 64.6547C276.76 64.8229 278.632 64.9608 280.607 65.1116C282.583 65.2642 284.474 65.461 286.187 65.7281C287.899 66.0203 289.434 66.3602 290.691 66.7937C293.214 67.6304 294.607 68.5876 294.55 68.7012Z" fill="#22343D"/>
<mask id="mask0_1386_838" style="mask-type:luminance" maskUnits="userSpaceOnUse" x="254" y="22" width="100" height="54">
<path fill-rule="evenodd" clip-rule="evenodd" d="M254.489 22.7668H354V75.7289H254.489V22.7668Z" fill="white"/>
</mask>
<g mask="url(#mask0_1386_838)">
<path fill-rule="evenodd" clip-rule="evenodd" d="M264.499 33.4943C269.235 32.4027 274.142 33.3426 278.917 34.207C283.693 35.0714 288.651 35.8509 293.321 34.4584C301.751 31.9449 308.15 22.6927 316.892 22.7673C320.492 22.7976 323.885 24.4676 327.392 25.3511C331.747 26.4487 336.283 26.3308 340.695 27.1138C345.107 27.8967 349.664 29.8241 352.158 33.855C355.116 38.6384 354.305 45.3857 351.201 50.059C348.097 54.7332 343.126 57.5789 338.033 59.1915C334.48 60.3161 330.696 60.9664 327.621 63.2042C324.511 65.468 322.481 69.1113 319.584 71.6856C312.313 78.1441 300.999 76.293 293.489 70.1665C291.602 68.6275 289.853 66.8414 287.734 65.7151C279.111 61.1302 266.71 67.1995 259.284 58.8577C251.743 50.3859 252.818 36.1856 264.499 33.4943Z" fill="#22343D"/>
</g>
<path fill-rule="evenodd" clip-rule="evenodd" d="M262.132 197.563C262.132 197.563 270.032 215.957 270.957 212.552C271.879 209.144 271.574 200.964 271.079 199.796C270.582 198.628 267.352 193.468 267.352 193.468L262.132 197.563Z" fill="#FFB2A0"/>
<path fill-rule="evenodd" clip-rule="evenodd" d="M319.257 48.8202C319.988 49.8373 319.5 48.7448 320.327 50.2118C323.767 50.0818 326.076 46.9197 326.076 46.9197C326.076 46.9197 331.537 47.0766 331.474 46.0171C331.411 44.9558 326.239 45.3521 326.239 45.3521C326.239 45.3521 331.711 43.4853 331.41 42.5533C331.112 41.6221 324.795 44.5925 324.795 44.5925C324.795 44.5925 331.169 40.2946 330.228 39.6053C329.287 38.9178 323.154 42.6695 323.154 42.6695C323.154 42.6695 328.484 37.9138 327.685 37.3008C326.887 36.6878 319.494 42.8775 319.494 42.8775C319.602 39.8325 317.591 39.9392 317.591 39.9392L317.674 47.374C317.674 47.374 318.92 48.352 319.257 48.8202Z" fill="#FFC6B2"/>
<path fill-rule="evenodd" clip-rule="evenodd" d="M238.322 15.1705C237.153 15.4046 238.059 14.9632 236.543 15.4661C234.052 12.8858 234.382 8.83068 234.382 8.83068C234.382 8.83068 230.205 5.01051 230.897 4.26399C231.594 3.51573 235.219 7.54226 235.219 7.54226C235.219 7.54226 232.269 2.19957 233.063 1.71923C233.855 1.23889 236.765 8.01566 236.765 8.01566C236.765 8.01566 234.624 0.204517 235.749 0.368388C236.873 0.532258 239.167 7.75988 239.167 7.75988C239.167 7.75988 238.088 0.360584 239.058 0.477634C240.029 0.593817 241.776 10.5552 241.776 10.5552C243.556 8.20034 244.993 9.73066 244.993 9.73066L240.482 15.121C240.482 15.121 238.859 15.0638 238.322 15.1705Z" fill="#FFC6B2"/>
<path fill-rule="evenodd" clip-rule="evenodd" d="M266.662 46.2268C265.151 45.9571 261.498 48.5946 259.67 52.8934C258.647 55.2995 257.943 57.7436 259.117 61.6566C259.67 63.4973 260.827 63.7279 261.086 64.5525C261.412 65.5964 260.331 68.8868 260.331 68.8868L264.643 70.7787C264.923 68.5183 265.241 66.2441 267.362 65.2626C268.155 64.895 269.004 64.6626 269.753 64.1961C271.773 62.9381 272.852 60.1861 273.682 57.9326C274.302 56.2497 270.45 46.9013 266.662 46.2268Z" fill="#FFC6B2"/>
<path fill-rule="evenodd" clip-rule="evenodd" d="M261.529 110.113L254.304 106.964C254.304 106.964 232.863 150.157 232.952 162.141C233.041 174.124 262.4 198.118 262.4 198.118L267.352 193.469C267.352 193.469 258.288 176.299 253.442 170.245C248.596 164.19 261.529 110.113 261.529 110.113Z" fill="#FFB2A0"/>
<path fill-rule="evenodd" clip-rule="evenodd" d="M297.401 159.316C297.401 159.316 313.325 151.109 310.125 150.384C306.925 149.663 299.442 150.657 298.411 151.288C297.379 151.92 292.908 155.835 292.908 155.835L297.401 159.316Z" fill="#FFC6B2"/>
<path fill-rule="evenodd" clip-rule="evenodd" d="M268.626 109.738L257.666 114.07C257.666 114.07 246.702 166.453 250.888 174.677C255.072 182.904 266.826 177.46 283.566 167.535L297.588 159.22L292.908 155.836C292.908 155.836 276.591 159.309 272.009 162.772C272.009 162.772 274.4 155.412 277.589 145.022C280.777 134.632 282.976 124.025 268.626 109.738Z" fill="#FFC6B2"/>
<path fill-rule="evenodd" clip-rule="evenodd" d="M255.135 74.051C255.135 70.5707 256.166 68.0537 259.37 68.0537C262.574 68.0537 267.002 69.2736 267.002 72.7548C267.002 76.2368 264.478 81.889 261.273 81.889C258.069 81.889 255.135 77.533 255.135 74.051Z" fill="#FFC6B2"/>
<path fill-rule="evenodd" clip-rule="evenodd" d="M257.665 67.555C257.665 67.555 247.702 55.8431 245.709 44.3696C243.716 32.8978 240.33 14.2816 240.33 14.2816L236.544 15.466C236.544 15.466 234.749 40.9075 236.544 44.8031C238.336 48.6995 247.099 74.6396 249.767 81.4519L257.665 67.555Z" fill="#FFC6B2"/>
<path fill-rule="evenodd" clip-rule="evenodd" d="M268.368 76.6831C268.368 76.6831 269.134 73.0398 281.732 68.0881C294.33 63.1374 318.097 47.0894 318.097 47.0894L320.468 50.0364C320.468 50.0364 307.554 66.2405 300.041 69.0826C292.528 71.9257 276.571 83.1321 274.929 84.0286C272.446 85.3855 272.477 87.0927 268.368 76.6831Z" fill="#FFC6B2"/>
<path fill-rule="evenodd" clip-rule="evenodd" d="M257.665 67.5552C257.665 67.5552 247.542 71.1187 247.542 87.8499C247.542 87.8499 247.549 110.765 249.935 114.934C249.935 114.934 253.813 116.013 258.648 114.934C263.718 113.801 268.625 109.738 268.625 109.738L276.587 83.7714L275.635 71.6051L264.809 69.3343C264.809 69.3343 267.914 85.0997 256.678 78.322C254.494 77.005 259.891 68.0607 259.891 68.0607L257.665 67.5552Z" fill="#4DADF7"/>
<path fill-rule="evenodd" clip-rule="evenodd" d="M249.101 81.1627L244.113 69.8747C244.113 69.8747 244.828 63.0268 253.985 60.5731C253.985 60.5731 254.911 64.0248 255.926 65.3436C256.94 66.6615 259.895 68.0643 259.895 68.0643L249.101 81.1627Z" fill="#22343D"/>
<path fill-rule="evenodd" clip-rule="evenodd" d="M267.957 85.6999L283.817 82.1684C283.817 82.1684 286.574 75.9622 280.036 68.5793C280.036 68.5793 267.665 69.3909 266.063 69.5357C264.487 69.6779 265.569 70.9966 265.569 70.9966L267.957 85.6999Z" fill="#22343D"/>
<path fill-rule="evenodd" clip-rule="evenodd" d="M249.91 109.352C249.91 109.352 234.908 139.481 232.43 144.864C232.43 144.864 276.687 166.948 294.652 140.366C294.652 140.366 284.433 116.869 268.634 107.924L261.819 105.707L250.176 109.207" fill="#4DADF7"/>
<path fill-rule="evenodd" clip-rule="evenodd" d="M273.102 57.6479C273.102 57.6479 274.811 55.7916 275.862 57.0765C276.913 58.3615 272.051 60.2178 272.051 60.2178L273.102 57.6479Z" fill="#FFC6B2"/>
<path fill-rule="evenodd" clip-rule="evenodd" d="M304.359 32.3305C304.375 32.3947 303.715 32.7051 302.455 33.0302C301.198 33.3588 299.333 33.6571 297.016 33.7082C294.7 33.7585 291.947 33.5348 288.933 33.0909C285.917 32.6565 282.64 32.0184 279.193 31.61C275.751 31.2103 272.442 31.1375 269.511 31.6516C266.58 32.1571 264.042 33.2001 262.103 34.4183C260.163 35.6461 258.814 37.0082 257.985 38.0391C257.152 39.0708 256.777 39.7298 256.692 39.6743C256.646 39.6483 256.897 38.9061 257.652 37.7495C258.402 36.5963 259.726 35.0747 261.701 33.6987C263.674 32.3314 266.296 31.1565 269.344 30.5687C272.395 29.9722 275.808 30.0181 279.309 30.4256C282.814 30.8409 286.095 31.5155 289.076 32.0045C292.056 32.503 294.75 32.8082 297.018 32.8655C301.565 33.0033 304.317 32.1267 304.359 32.3305Z" fill="#22343D"/>
<path fill-rule="evenodd" clip-rule="evenodd" d="M264.4 56.5939C264.395 56.6667 263.908 56.7179 263.165 56.45C262.981 56.3797 262.764 56.2878 262.562 56.0867C262.463 55.9861 262.37 55.8526 262.313 55.6922C262.232 55.4676 262.238 55.2127 262.319 55.0185C262.343 54.9795 262.341 54.8867 262.388 54.885L262.533 54.8798C262.625 54.8659 262.735 54.8988 262.842 54.9205C263.038 54.9613 263.101 54.9552 263.241 54.9656C263.486 54.9717 263.74 54.9439 263.994 54.8832C265.031 54.6457 265.726 53.8254 266.037 53.1509C266.363 52.472 266.392 51.9613 266.479 51.9674C266.54 51.9587 266.662 52.5015 266.392 53.3208C266.255 53.7223 266.016 54.1827 265.631 54.5867C265.247 54.9899 264.717 55.3211 264.114 55.4642C263.813 55.537 263.511 55.5647 263.219 55.5483C263.092 55.5413 262.893 55.5136 262.835 55.4997C262.781 55.4902 262.788 55.4772 262.777 55.4841C262.771 55.491 262.768 55.5023 262.768 55.5188C262.79 55.5968 262.829 55.6714 262.884 55.7381C262.995 55.8743 263.156 55.9757 263.314 56.0607C263.956 56.4032 264.412 56.5046 264.4 56.5939Z" fill="#22343D"/>
<path fill-rule="evenodd" clip-rule="evenodd" d="M260.842 56.7946L266.684 59.2951C266.684 59.2951 261.55 63.1413 260.842 56.7946Z" fill="white"/>
<path fill-rule="evenodd" clip-rule="evenodd" d="M269.179 57.9979C268.972 58.4262 268.328 58.5008 267.742 58.1652C267.155 57.8306 266.848 57.2115 267.055 56.7841C267.262 56.3557 267.906 56.2803 268.493 56.6159C269.08 56.9514 269.387 57.5696 269.179 57.9979Z" fill="#FFB2A0"/>
<path fill-rule="evenodd" clip-rule="evenodd" d="M262.659 54.2422C262.481 54.6861 261.845 54.8144 261.237 54.5283C260.629 54.2422 260.278 53.6508 260.456 53.2069C260.632 52.763 261.269 52.6347 261.877 52.9208C262.485 53.2069 262.836 53.7982 262.659 54.2422Z" fill="#FFB2A0"/>
<path fill-rule="evenodd" clip-rule="evenodd" d="M260.494 63.755C260.494 63.755 262.542 65.6183 264.679 65.0183C264.679 65.0183 263.942 66.2183 261.106 65.7778C261.106 65.7778 261.342 64.4556 260.494 63.755Z" fill="#FFA192"/>
<path fill-rule="evenodd" clip-rule="evenodd" d="M268.619 54.0118C268.619 54.2892 268.411 54.5147 268.156 54.5147C267.9 54.5147 267.693 54.2892 267.693 54.0118C267.693 53.7343 267.9 53.5089 268.156 53.5089C268.411 53.5089 268.619 53.7343 268.619 54.0118Z" fill="#22343D"/>
<path fill-rule="evenodd" clip-rule="evenodd" d="M264.831 52.5297C264.831 52.8072 264.624 53.0326 264.368 53.0326C264.113 53.0326 263.906 52.8072 263.906 52.5297C263.906 52.2523 264.113 52.0269 264.368 52.0269C264.624 52.0269 264.831 52.2523 264.831 52.5297Z" fill="#22343D"/>
<path fill-rule="evenodd" clip-rule="evenodd" d="M270.106 52.6722C269.963 52.738 269.687 52.3748 269.269 52.0808C268.859 51.7739 268.444 51.636 268.445 51.4678C268.431 51.3066 269.011 51.1756 269.574 51.5858C270.137 51.9933 270.249 52.6236 270.106 52.6722Z" fill="#22343D"/>
<path fill-rule="evenodd" clip-rule="evenodd" d="M263.43 50.2325C263.421 50.0756 263.918 49.8779 264.584 49.897C265.261 49.9126 265.762 50.2698 265.692 50.419C265.628 50.5698 265.157 50.5048 264.562 50.4927C263.964 50.4736 263.44 50.4033 263.43 50.2325Z" fill="#22343D"/>
<path fill-rule="evenodd" clip-rule="evenodd" d="M265.516 205.037C265.516 205.037 267.946 214.408 270.455 213.641C272.965 212.874 271.078 199.796 271.078 199.796L268.574 195.497C268.574 195.497 270.926 217.389 265.516 205.037Z" fill="#22343D"/>
<path fill-rule="evenodd" clip-rule="evenodd" d="M296.163 153.086C296.163 153.086 297.93 150.991 300.072 150.642C302.215 150.293 309.873 149.304 310.998 150.409C312.123 151.514 304.791 155.221 304.791 155.221C304.791 155.221 307.345 153.452 306.285 152.795C304.41 151.631 296.163 153.086 296.163 153.086Z" fill="#22343D"/>
<path fill-rule="evenodd" clip-rule="evenodd" d="M293.124 155.594L295.521 160.882L296.829 160.093L293.632 154.884L293.124 155.594Z" fill="#22343D"/>
<path fill-rule="evenodd" clip-rule="evenodd" d="M266.313 191.348L260.428 197.111L262.172 198.689L267.112 192.848L266.313 191.348Z" fill="#22343D"/>
<path fill-rule="evenodd" clip-rule="evenodd" d="M143.267 133.983C141.593 129.471 140.95 124.447 138.452 120.41C134.858 114.6 127.955 111.717 125.038 105.474C123.8 102.823 123.411 99.7897 123.398 96.8166C123.374 90.9346 124.995 84.6815 129.178 80.9437C133.983 76.6484 141.194 76.7083 146.822 79.5938C152.449 82.4793 156.749 87.717 160.404 93.188C164.061 98.6582 167.261 104.529 171.519 109.459C174.675 113.114 178.419 116.267 180.797 120.561C187.316 132.335 180.609 147.231 169.101 151.481C158.989 155.213 146.765 143.416 143.267 133.983Z" fill="#22343D"/>
<path fill-rule="evenodd" clip-rule="evenodd" d="M128.861 217.019C129.862 217.913 128.77 217.294 130.226 218.324C129.901 222.275 126.537 224.764 126.537 224.764C126.537 224.764 126.395 231.055 125.314 230.926C124.231 230.798 124.925 224.868 124.925 224.868C124.925 224.868 122.71 231.064 121.773 230.67C120.837 230.277 124.227 223.167 124.227 223.167C124.227 223.167 119.475 230.273 118.822 229.152C118.17 228.033 122.352 221.177 122.352 221.177C122.352 221.177 117.188 227.057 116.605 226.105C116.022 225.155 122.767 216.978 122.767 216.978C119.645 216.94 119.866 214.632 119.866 214.632L127.469 215.122C127.469 215.122 128.401 216.606 128.861 217.019Z" fill="#FFC6B2"/>
<path fill-rule="evenodd" clip-rule="evenodd" d="M201.496 98.3836C202.797 98.6316 201.788 98.1634 203.476 98.6966C206.248 95.9602 205.88 91.6606 205.88 91.6606C205.88 91.6606 210.53 87.6098 209.759 86.8182C208.984 86.0249 204.95 90.2933 204.95 90.2933C204.95 90.2933 208.232 84.6289 207.349 84.1191C206.468 83.6102 203.23 90.7962 203.23 90.7962C203.23 90.7962 205.612 82.5134 204.359 82.6868C203.109 82.861 200.556 90.5248 200.556 90.5248C200.556 90.5248 201.756 82.679 200.677 82.803C199.596 82.9261 197.848 93.2048 197.848 93.2048C195.302 90.954 193.52 92.395 193.52 92.395L199.092 98.3307C199.092 98.3307 200.898 98.2709 201.496 98.3836Z" fill="#FFC6B2"/>
<path fill-rule="evenodd" clip-rule="evenodd" d="M169.666 132.738C172.018 132.339 179.191 137.388 177.366 147.643C177.214 148.504 176.178 150.399 175.921 151.183C175.595 152.176 178.132 155.809 178.132 155.809L171.582 158.083C171.302 155.933 171.773 152.792 169.656 151.858C168.864 151.509 168.016 151.288 167.269 150.845C165.252 149.648 164.176 147.031 163.347 144.888C162.729 143.287 162.258 141.565 162.275 139.827C162.318 135.452 165.885 133.379 169.666 132.738Z" fill="#FFC6B2"/>
<path fill-rule="evenodd" clip-rule="evenodd" d="M182.783 160.822C182.783 157.131 181.706 155.722 178.14 155.722C174.574 155.722 169.866 157.131 169.866 160.822C169.866 164.514 172.384 169.133 175.952 169.133C179.517 169.133 182.783 164.514 182.783 160.822Z" fill="#FFC6B2"/>
<path fill-rule="evenodd" clip-rule="evenodd" d="M179.967 153.933C179.967 153.933 191.055 141.513 193.274 129.347C195.492 117.182 199.261 97.441 199.261 97.441L203.475 98.6965C203.475 98.6965 205.472 125.675 203.475 129.807C201.48 133.939 190.168 162.632 190.39 169.977L179.967 153.933Z" fill="#FFC6B2"/>
<path fill-rule="evenodd" clip-rule="evenodd" d="M160.201 159.946C160.201 159.946 156.43 160.635 150.664 174.867C144.897 189.099 127.154 215.594 127.154 215.594L130.038 218.478C130.038 218.478 147.337 204.477 150.664 195.985C153.99 187.492 158.204 176.933 160.201 177.391C162.196 177.852 170.625 165.225 160.201 159.946Z" fill="#FFC6B2"/>
<path fill-rule="evenodd" clip-rule="evenodd" d="M189.888 171.874L195.051 156.393C195.051 156.393 194.255 149.132 184.064 146.53L178.291 155.565L189.888 171.874Z" fill="#22343D"/>
<path fill-rule="evenodd" clip-rule="evenodd" d="M161.922 158.758C161.922 158.758 155.831 159.316 150.894 171.096C150.894 171.096 156.323 179.24 160.296 179.514C160.296 179.514 175.05 165.815 161.922 158.758Z" fill="#22343D"/>
<path fill-rule="evenodd" clip-rule="evenodd" d="M178.66 298.461C178.66 298.461 169.866 317.967 168.838 314.356C167.812 310.743 168.151 302.067 168.702 300.829C169.255 299.59 172.85 294.119 172.85 294.119L178.66 298.461Z" fill="#FFC6B2"/>
<path fill-rule="evenodd" clip-rule="evenodd" d="M179.331 205.727L187.373 202.388C187.373 202.388 211.237 248.191 211.138 260.9C211.039 273.606 178.362 299.05 178.362 299.05L172.85 294.119C172.85 294.119 188.339 269.381 193.732 262.961C196.429 259.751 177.121 244.018 174.197 228.879C171.272 213.741 179.331 205.727 179.331 205.727Z" fill="#22343D"/>
<path fill-rule="evenodd" clip-rule="evenodd" d="M130.983 288.243C130.983 288.243 114.534 301.414 115.219 297.717C115.905 294.018 120.046 286.468 121.084 285.627C122.124 284.789 127.74 281.63 127.74 281.63L130.983 288.243Z" fill="#FFC6B2"/>
<path fill-rule="evenodd" clip-rule="evenodd" d="M157.453 221.947L181.245 206.969C181.245 206.969 182.189 258.998 176.477 270.248C170.766 281.498 130.457 288.625 130.457 288.625L127.74 281.63C127.74 281.63 152.608 265.534 160.244 262.384C167.879 259.232 157.453 221.947 157.453 221.947Z" fill="#22343D"/>
<path fill-rule="evenodd" clip-rule="evenodd" d="M171.622 196.723C171.622 196.723 154.104 203.461 157.453 221.947C160.802 240.432 166.383 243.898 166.383 243.898L176.429 225.991L186.516 202.54L176.429 201.15L171.622 196.723Z" fill="#22343D"/>
<path fill-rule="evenodd" clip-rule="evenodd" d="M179.968 153.933C179.968 153.933 192.865 161.785 192.865 179.527C192.865 179.527 191.226 199.754 188.571 204.173C188.571 204.173 184.255 205.319 178.873 204.173C173.23 202.973 167.769 198.665 167.769 198.665L163.361 173.901L159.933 159.441L161.792 158.775L171.491 157.618C171.491 157.618 170.098 173.358 180.929 165.542C183.21 163.895 178.089 155.688 178.089 155.688L179.968 153.933Z" fill="#F03E3D"/>
<path fill-rule="evenodd" clip-rule="evenodd" d="M187.862 86.8878L214.903 104.024L230.114 72.8123L204.763 57.5126L187.862 86.8878Z" fill="#F03E3D"/>
<path fill-rule="evenodd" clip-rule="evenodd" d="M225.481 236.295L244.821 223.289L228.843 192.992L211.164 205.446L225.481 236.295Z" fill="#02897A"/>
<path fill-rule="evenodd" clip-rule="evenodd" d="M141.363 64.6314L151.123 58.1338L143.059 42.9974L134.137 49.2191L141.363 64.6314Z" fill="#740A76"/>
<path fill-rule="evenodd" clip-rule="evenodd" d="M130.256 107.193C130.307 107.144 130.904 107.732 131.848 108.933C132.788 110.136 134.071 111.964 135.358 114.432C136.651 116.889 137.929 120.007 138.842 123.626C139.787 127.218 140.421 131.256 141.874 135.146C142.628 137.067 143.542 138.856 144.63 140.437C145.727 142.008 146.944 143.387 148.197 144.589C150.758 146.93 153.44 148.54 155.831 149.471C158.219 150.414 160.265 150.837 161.687 150.989C163.108 151.16 163.911 151.185 163.911 151.286C163.915 151.35 163.115 151.482 161.656 151.452C160.198 151.44 158.075 151.137 155.576 150.267C153.074 149.408 150.248 147.82 147.545 145.428C146.22 144.198 144.931 142.775 143.771 141.139C142.62 139.493 141.648 137.611 140.858 135.597C139.345 131.532 138.747 127.458 137.867 123.914C137.027 120.357 135.858 117.297 134.677 114.834C133.503 112.365 132.337 110.493 131.511 109.217C130.68 107.943 130.194 107.253 130.256 107.193Z" fill="#22343D"/>
<path fill-rule="evenodd" clip-rule="evenodd" d="M163.48 87.1451C163.678 87.1121 163.871 90.0037 165.361 94.2808C166.105 96.4111 167.211 98.8622 168.8 101.319C169.594 102.55 170.508 103.762 171.543 104.97C172.57 106.183 173.689 107.415 174.746 108.797C176.867 111.586 178.326 114.601 179.7 117.262C181.064 119.949 182.15 122.505 182.702 124.791C183.279 127.07 183.312 129.033 183.129 130.334C182.938 131.641 182.639 132.304 182.59 132.286C182.495 132.259 182.65 131.559 182.704 130.292C182.751 129.027 182.602 127.184 181.958 125.029C181.336 122.866 180.216 120.428 178.818 117.798C177.399 115.169 175.928 112.215 173.902 109.557C172.885 108.227 171.782 106.999 170.748 105.756C169.709 104.519 168.764 103.23 167.967 101.941C166.367 99.3599 165.299 96.7874 164.631 94.5634C163.947 92.3403 163.655 90.4641 163.517 89.1713C163.381 87.876 163.417 87.1511 163.48 87.1451Z" fill="#22343D"/>
<path fill-rule="evenodd" clip-rule="evenodd" d="M171.77 143.884C171.759 143.8 172.2 143.724 172.616 143.193C172.711 143.071 172.808 142.893 172.806 142.789C172.804 142.677 172.732 142.483 172.608 142.371C172.48 142.246 172.337 142.185 172.149 142.206C171.954 142.222 171.717 142.326 171.407 142.377C170.729 142.475 170.2 142.059 169.852 141.721C169.494 141.367 169.221 141.007 169.018 140.684C168.612 140.035 168.486 139.566 168.548 139.531C168.62 139.49 168.864 139.878 169.322 140.422C169.55 140.693 169.838 141.003 170.178 141.302C170.513 141.593 170.924 141.857 171.333 141.787C171.55 141.757 171.803 141.647 172.111 141.624C172.425 141.59 172.774 141.747 172.965 141.981C173.169 142.221 173.283 142.502 173.259 142.836C173.198 143.178 173.031 143.337 172.893 143.487C172.297 144.054 171.75 143.961 171.77 143.884Z" fill="#22343D"/>
<path fill-rule="evenodd" clip-rule="evenodd" d="M174.965 144.372L169.771 146.424C169.771 146.424 174.178 150.611 174.965 144.372Z" fill="white"/>
<path fill-rule="evenodd" clip-rule="evenodd" d="M169.254 144.023C169.461 144.451 169.154 145.07 168.567 145.405C167.981 145.741 167.337 145.666 167.13 145.238C166.922 144.81 167.23 144.191 167.816 143.856C168.403 143.52 169.046 143.595 169.254 144.023Z" fill="#FFB2A0"/>
<path fill-rule="evenodd" clip-rule="evenodd" d="M175.41 140.593C175.58 141.041 175.221 141.625 174.609 141.9C173.996 142.176 173.362 142.036 173.192 141.589C173.022 141.141 173.381 140.557 173.994 140.282C174.606 140.007 175.24 140.146 175.41 140.593Z" fill="#FFB2A0"/>
<path fill-rule="evenodd" clip-rule="evenodd" d="M169.925 152.008C169.925 152.008 171.663 152.392 173.878 151.792C173.878 151.792 172.786 152.944 171.002 153.212C171.002 153.212 170.602 152.409 169.925 152.008Z" fill="#FFA192"/>
<path fill-rule="evenodd" clip-rule="evenodd" d="M171.701 139.327C171.896 139.506 171.92 139.823 171.754 140.035C171.589 140.246 171.298 140.272 171.102 140.093C170.907 139.914 170.884 139.597 171.049 139.385C171.214 139.173 171.506 139.147 171.701 139.327Z" fill="#22343D"/>
<path fill-rule="evenodd" clip-rule="evenodd" d="M168.211 141.508C168.405 141.687 168.429 142.005 168.264 142.216C168.1 142.428 167.808 142.454 167.612 142.274C167.417 142.095 167.393 141.778 167.559 141.566C167.724 141.354 168.016 141.328 168.211 141.508Z" fill="#22343D"/>
<path fill-rule="evenodd" clip-rule="evenodd" d="M171.722 137.228C171.675 137.389 171.242 137.383 170.766 137.54C170.285 137.68 169.92 137.935 169.802 137.825C169.68 137.733 169.963 137.168 170.615 136.967C171.265 136.763 171.78 137.079 171.722 137.228Z" fill="#22343D"/>
<path fill-rule="evenodd" clip-rule="evenodd" d="M165.693 141.183C165.576 141.09 165.759 140.551 166.203 140.011C166.651 139.46 167.226 139.276 167.286 139.429C167.35 139.579 167 139.929 166.606 140.414C166.207 140.896 165.819 141.287 165.693 141.183Z" fill="#22343D"/>
<path fill-rule="evenodd" clip-rule="evenodd" d="M163.733 145.373C163.733 145.373 162.068 143.853 161.268 145.228C160.469 146.603 164.866 147.327 164.866 147.327L163.733 145.373Z" fill="#FFC6B2"/>
<path fill-rule="evenodd" clip-rule="evenodd" d="M123.681 283.963C123.681 283.963 121.293 285.091 120.67 285.768C120.047 286.445 114.336 297.16 115.063 298.513C115.79 299.866 121.517 295.272 121.517 295.272C121.517 295.272 116.725 296.258 123.681 283.963Z" fill="#22343D"/>
<path fill-rule="evenodd" clip-rule="evenodd" d="M170.28 298.132C170.28 298.132 168.584 300.124 168.323 301.038C168.061 301.951 167.592 314.322 168.816 315.153C170.039 315.984 173.381 309.158 173.381 309.158C173.381 309.158 169.385 312.559 170.28 298.161" fill="#22343D"/>
</svg>
