<svg width="164" height="34" viewBox="0 0 164 34" fill="none" xmlns="http://www.w3.org/2000/svg">
<g clip-path="url(#clip0_1386_355)">
<path d="M57.8888 19.5829L56.9113 22.2712H56.8298C56.6669 21.665 56.3683 20.7426 55.8795 19.6356L50.6391 6.85265H45.5073V27.2263H48.9014V14.6542C48.9014 13.8635 48.9014 12.9674 48.8742 11.8604C48.8471 11.3069 48.7928 10.8852 48.7656 10.5689H48.8471C49.01 11.3596 49.2 11.9395 49.3358 12.3085L55.6351 27.1736H58.0245L64.2696 12.1767C64.4053 11.834 64.5411 11.1488 64.6769 10.5689H64.7583C64.6769 12.0712 64.6226 13.4154 64.5954 14.2325V27.1472H68.2067V6.79993H63.2649L57.8888 19.5829ZM71.6278 12.5457H75.1576V27.1472H71.6278V12.5457ZM73.4199 6.37823C72.8226 6.37823 72.3338 6.58908 71.9265 6.95807C71.5192 7.32706 71.302 7.80148 71.302 8.38133C71.302 8.93482 71.5192 9.40923 71.9265 9.77823C72.3338 10.1472 72.8226 10.3317 73.4199 10.3317C74.0173 10.3317 74.5331 10.1209 74.9133 9.77823C75.3206 9.40923 75.5378 8.93482 75.5378 8.38133C75.5378 7.82784 75.3206 7.35342 74.9133 6.95807C74.5603 6.58908 74.0444 6.37823 73.4199 6.37823ZM87.6749 12.4139C87.0232 12.2821 86.3444 12.203 85.6928 12.203C84.0908 12.203 82.6245 12.5457 81.4027 13.2309C80.1808 13.9162 79.2033 14.865 78.5788 16.0511C77.9272 17.2635 77.6014 18.6604 77.6014 20.2681C77.6014 21.665 77.9272 22.9038 78.5517 24.0371C79.1762 25.1441 80.0451 26.0402 81.2126 26.6464C82.3259 27.2526 83.6292 27.5689 85.0954 27.5689C86.7788 27.5689 88.2179 27.2263 89.3583 26.5937L89.3855 26.5674V23.4046L89.2497 23.51C88.7338 23.879 88.1365 24.1953 87.5391 24.3798C86.9146 24.5906 86.3444 24.6961 85.8557 24.6961C84.4437 24.6961 83.3305 24.3007 82.5431 23.4309C81.7285 22.5875 81.3212 21.4278 81.3212 19.9782C81.3212 18.4759 81.7285 17.2899 82.5702 16.4201C83.412 15.5503 84.5252 15.1023 85.8828 15.1023C87.0232 15.1023 88.1908 15.4713 89.2497 16.2092L89.3855 16.3147V12.9674L89.3583 12.941C88.8967 12.7565 88.3808 12.5457 87.6749 12.4139ZM99.3232 12.3085C98.4543 12.3085 97.6398 12.572 96.9338 13.1255C96.3365 13.5999 95.9292 14.2852 95.5762 15.1023H95.549V12.5457H92.0192V27.1472H95.549V19.6883C95.549 18.4232 95.8206 17.3689 96.4179 16.6046C97.0153 15.8139 97.7755 15.4185 98.6987 15.4185C99.0245 15.4185 99.3504 15.4976 99.7577 15.5503C100.138 15.6557 100.409 15.7612 100.599 15.893L100.735 15.9984V12.572L100.654 12.5457C100.409 12.3875 99.9206 12.3085 99.3232 12.3085ZM108.935 12.2294C106.464 12.2294 104.482 12.941 103.097 14.3379C101.685 15.7348 101.007 17.6588 101.007 20.0837C101.007 22.3503 101.713 24.1953 103.07 25.5395C104.428 26.8573 106.274 27.5426 108.582 27.5426C110.999 27.5426 112.927 26.8309 114.311 25.4077C115.723 23.9844 116.402 22.0868 116.402 19.741C116.402 17.4216 115.75 15.5767 114.42 14.2325C113.144 12.8883 111.27 12.2294 108.935 12.2294ZM111.759 23.4573C111.107 24.2744 110.076 24.6697 108.799 24.6697C107.523 24.6697 106.491 24.2744 105.758 23.4046C105.025 22.5875 104.672 21.4015 104.672 19.8992C104.672 18.3441 105.052 17.1581 105.758 16.3147C106.491 15.4713 107.496 15.0495 108.772 15.0495C110.021 15.0495 110.999 15.4449 111.705 16.2619C112.411 17.079 112.791 18.265 112.791 19.8201C112.736 21.4015 112.438 22.6402 111.759 23.4573ZM124.276 18.6077C123.163 18.1596 122.457 17.817 122.131 17.5271C121.86 17.2635 121.724 16.8945 121.724 16.4201C121.724 16.0247 121.887 15.6294 122.294 15.3658C122.701 15.1023 123.163 14.9705 123.842 14.9705C124.439 14.9705 125.064 15.0759 125.661 15.234C126.258 15.3922 126.801 15.6294 127.236 15.9457L127.372 16.0511V12.8356L127.29 12.8092C126.883 12.6511 126.34 12.493 125.688 12.3612C125.036 12.2557 124.439 12.203 123.95 12.203C122.267 12.203 120.882 12.5984 119.796 13.4681C118.71 14.2852 118.194 15.3922 118.194 16.6837C118.194 17.3689 118.303 17.9751 118.547 18.4759C118.791 18.9767 119.144 19.4511 119.633 19.8464C120.122 20.2154 120.828 20.6371 121.805 21.0325C122.62 21.3751 123.244 21.6387 123.625 21.8495C124.005 22.0604 124.249 22.2976 124.439 22.4821C124.575 22.693 124.656 22.9565 124.656 23.2992C124.656 24.2744 123.896 24.7488 122.348 24.7488C121.751 24.7488 121.127 24.6433 120.393 24.4061C119.66 24.1689 118.981 23.8263 118.411 23.4309L118.276 23.3255V26.6728L118.357 26.6992C118.873 26.9364 119.497 27.0945 120.258 27.279C121.018 27.4108 121.697 27.5162 122.294 27.5162C124.113 27.5162 125.607 27.1209 126.666 26.2511C127.752 25.4077 128.322 24.3271 128.322 22.9302C128.322 21.955 128.05 21.0852 127.453 20.4263C126.666 19.7937 125.688 19.1348 124.276 18.6077ZM137.635 12.2294C135.164 12.2294 133.182 12.941 131.797 14.3379C130.413 15.7348 129.707 17.6588 129.707 20.0837C129.707 22.3503 130.413 24.1953 131.77 25.5395C133.128 26.8573 134.974 27.5426 137.282 27.5426C139.699 27.5426 141.627 26.8309 143.011 25.4077C144.423 23.9844 145.102 22.0868 145.102 19.741C145.102 17.4216 144.45 15.5767 143.12 14.2325C141.844 12.8883 139.97 12.2294 137.635 12.2294ZM140.432 23.4573C139.78 24.2744 138.748 24.6697 137.472 24.6697C136.169 24.6697 135.164 24.2744 134.431 23.4046C133.698 22.5875 133.345 21.4015 133.345 19.8992C133.345 18.3441 133.725 17.1581 134.431 16.3147C135.164 15.4713 136.169 15.0495 137.445 15.0495C138.667 15.0495 139.672 15.4449 140.378 16.2619C141.083 17.079 141.464 18.265 141.464 19.8201C141.464 21.4015 141.111 22.6402 140.432 23.4573ZM163.973 15.3658V12.5457H160.416V8.22319L160.307 8.24954L156.94 9.22474L156.859 9.2511V12.5457H151.537V10.7007C151.537 9.8573 151.754 9.19838 152.134 8.77668C152.515 8.35497 153.085 8.14412 153.791 8.14412C154.28 8.14412 154.795 8.24955 155.366 8.48675L155.501 8.56582V5.58753L155.42 5.56117C154.931 5.40303 154.28 5.29761 153.438 5.29761C152.379 5.29761 151.456 5.53482 150.614 5.93017C149.772 6.37823 149.148 6.98443 148.686 7.80148C148.225 8.59218 147.98 9.48831 147.98 10.5162V12.5457H145.509V15.3395H147.98V27.1472H151.537V15.3658H156.859V22.8775C156.859 25.9612 158.352 27.5162 161.339 27.5162C161.828 27.5162 162.344 27.4371 162.832 27.3581C163.348 27.2526 163.729 27.1209 163.946 27.0154L163.973 26.9891V24.1689L163.837 24.2743C163.62 24.4061 163.43 24.5116 163.104 24.5906C162.832 24.6697 162.588 24.6961 162.398 24.6961C161.692 24.6961 161.203 24.5379 160.85 24.1426C160.525 23.7736 160.362 23.1674 160.362 22.2712V15.3658H163.973Z" fill="#737373"/>
<path d="M0 0H16.6444V16.1566H0V0Z" fill="#F25022"/>
<path d="M18.3818 0H35.0262V16.1566H18.3818V0Z" fill="#7FBA00"/>
<path d="M0 17.8434H16.6444V34H0V17.8434Z" fill="#00A4EF"/>
<path d="M18.3818 17.8434H35.0262V34H18.3818V17.8434Z" fill="#FFB900"/>
</g>
<defs>
<clipPath id="clip0_1386_355">
<rect width="164" height="34" fill="white"/>
</clipPath>
</defs>
</svg>
